<svg width="500" height="500" viewBox="0 0 500 500" fill="none" xmlns="http://www.w3.org/2000/svg">
<g clip-path="url(#clip0)">
<path d="M0 0H500V500H0V0Z" fill="white"/>
<path d="M50 175C50 105.964 105.964 50 175 50C244.036 50 300 105.964 300 175V300H175C105.964 300 50 244.036 50 175Z" fill="#FFE6DE"/>
<path d="M300 300H375C416.421 300 450 333.579 450 375C450 416.421 416.421 450 375 450C333.579 450 300 416.421 300 375V300Z" fill="#FFE6DE"/>
<circle cx="375" cy="375" r="50" fill="#FF5722"/>
<circle cx="375" cy="375" r="45" fill="#FFE6DE"/>
<circle cx="375" cy="375" r="40" fill="#FF5722"/>
<rect x="332.5" y="373.75" width="85" height="2.5" fill="#FFE6DE"/>
<rect x="339.882" y="398.97" width="85" height="2.5" transform="rotate(-36 339.882 398.97)" fill="#FFE6DE"/>
<rect x="360.678" y="415.034" width="85" height="2.5" transform="rotate(-72 360.678 415.034)" fill="#FFE6DE"/>
<rect x="386.944" y="415.806" width="85" height="2.5" transform="rotate(-108 386.944 415.806)" fill="#FFE6DE"/>
<rect x="408.648" y="400.992" width="85" height="2.5" transform="rotate(-144 408.648 400.992)" fill="#FFE6DE"/>
<path d="M87.2328 205C93.4328 205 98.7995 206.033 103.333 208.1C107.933 210.167 111.466 213.1 113.933 216.9C116.399 220.7 117.633 225.2 117.633 230.4C117.633 235.533 116.399 240.033 113.933 243.9C111.466 247.7 107.933 250.633 103.333 252.7C98.7995 254.7 93.4328 255.7 87.2328 255.7H73.1328V275H56.9328L56.9328 205H87.2328ZM86.3328 242.5C91.1995 242.5 94.8995 241.467 97.4328 239.4C99.9661 237.267 101.233 234.267 101.233 230.4C101.233 226.467 99.9661 223.467 97.4328 221.4C94.8995 219.267 91.1995 218.2 86.3328 218.2H73.1328V242.5H86.3328ZM153.601 275.8C147.934 275.8 142.834 274.633 138.301 272.3C133.834 269.9 130.334 266.6 127.801 262.4C125.267 258.2 124.001 253.433 124.001 248.1C124.001 242.767 125.267 238 127.801 233.8C130.334 229.6 133.834 226.333 138.301 224C142.834 221.6 147.934 220.4 153.601 220.4C159.267 220.4 164.334 221.6 168.801 224C173.267 226.333 176.767 229.6 179.301 233.8C181.834 238 183.101 242.767 183.101 248.1C183.101 253.433 181.834 258.2 179.301 262.4C176.767 266.6 173.267 269.9 168.801 272.3C164.334 274.633 159.267 275.8 153.601 275.8ZM153.601 263C157.601 263 160.867 261.667 163.401 259C166.001 256.267 167.301 252.633 167.301 248.1C167.301 243.567 166.001 239.967 163.401 237.3C160.867 234.567 157.601 233.2 153.601 233.2C149.601 233.2 146.301 234.567 143.701 237.3C141.101 239.967 139.801 243.567 139.801 248.1C139.801 252.633 141.101 256.267 143.701 259C146.301 261.667 149.601 263 153.601 263ZM226.228 220.4C232.895 220.4 238.261 222.4 242.328 226.4C246.461 230.4 248.528 236.333 248.528 244.2V275H232.928V246.6C232.928 242.333 231.995 239.167 230.128 237.1C228.261 234.967 225.561 233.9 222.028 233.9C218.095 233.9 214.961 235.133 212.628 237.6C210.295 240 209.128 243.6 209.128 248.4V275H193.528V221.2H208.428V227.5C210.495 225.233 213.061 223.5 216.128 222.3C219.195 221.033 222.561 220.4 226.228 220.4ZM285.769 253.9L278.269 261.3V275H262.669V200.8H278.269V242.8L301.069 221.2H319.669L297.269 244L321.669 275H302.769L285.769 253.9ZM349.408 220.4C357.741 220.4 364.141 222.4 368.608 226.4C373.074 230.333 375.308 236.3 375.308 244.3V275H360.708V268.3C357.774 273.3 352.308 275.8 344.308 275.8C340.174 275.8 336.574 275.1 333.508 273.7C330.508 272.3 328.208 270.367 326.608 267.9C325.008 265.433 324.208 262.633 324.208 259.5C324.208 254.5 326.074 250.567 329.808 247.7C333.608 244.833 339.441 243.4 347.308 243.4H359.708C359.708 240 358.674 237.4 356.608 235.6C354.541 233.733 351.441 232.8 347.308 232.8C344.441 232.8 341.608 233.267 338.808 234.2C336.074 235.067 333.741 236.267 331.808 237.8L326.208 226.9C329.141 224.833 332.641 223.233 336.708 222.1C340.841 220.967 345.074 220.4 349.408 220.4ZM348.208 265.3C350.874 265.3 353.241 264.7 355.308 263.5C357.374 262.233 358.841 260.4 359.708 258V252.5H349.008C342.608 252.5 339.408 254.6 339.408 258.8C339.408 260.8 340.174 262.4 341.708 263.6C343.308 264.733 345.474 265.3 348.208 265.3ZM422.127 220.4C428.793 220.4 434.16 222.4 438.227 226.4C442.36 230.4 444.427 236.333 444.427 244.2V275H428.827V246.6C428.827 242.333 427.893 239.167 426.027 237.1C424.16 234.967 421.46 233.9 417.927 233.9C413.993 233.9 410.86 235.133 408.527 237.6C406.193 240 405.027 243.6 405.027 248.4V275H389.427V221.2H404.327V227.5C406.393 225.233 408.96 223.5 412.027 222.3C415.093 221.033 418.46 220.4 422.127 220.4Z" fill="#FF5722"/>
</g>
<defs>
<clipPath id="clip0">
<path d="M0 0H500V500H0V0Z" fill="white"/>
</clipPath>
</defs>
</svg>
